<svg id="Layer_1" data-name="Layer 1" xmlns="http://www.w3.org/2000/svg" xmlns:xlink="http://www.w3.org/1999/xlink" viewBox="0 0 1920 1080"><defs><clipPath id="clip-path"><rect width="1920" height="1080" fill="none"/></clipPath></defs><title>Rainbow Swirl Background</title><g clip-path="url(#clip-path)"><path d="M1402.26,1648.66s-.85-4.85-2.45-13.93c-.59-3.27-1.31-7.3-2.16-12-1.25-5.13-2.4-11.23-4.28-17.92a399.44,399.44,0,0,0-16.18-48.56,508,508,0,0,0-30.51-62.65,794.07,794.07,0,0,0-47.45-73c-18.61-25.69-39.8-52.53-62.86-80.32s-47.8-56.59-73-86.52c-25.55-30.34-50.9-61.62-75.25-94.21a1177.8,1177.8,0,0,1-68.18-101c-20.71-34.68-38.95-70.31-53.58-106.12-7.32-17.89-13.75-35.82-19.19-53.61-1.41-4.43-2.69-8.89-3.91-13.32l-2-6.95-1.55-6.33-.76-3.16-.79-3.49-1.53-6.91c-.87-4.51-1.78-8.91-2.51-13.34A428,428,0,0,1,929,745.77c3.87-61.18,19.47-109.6,33.24-141.45a355.63,355.63,0,0,1,17.91-36c2.24-4,4.14-7,5.36-9.09a11.74,11.74,0,0,0,1.19-2.13s.22.18-.68,2.39-2.27,5.46-3.82,9.79a345.65,345.65,0,0,0-11.78,37.86,388.22,388.22,0,0,0-10.24,60.13,413.31,413.31,0,0,0,.21,78.08,389.28,389.28,0,0,0,19,88.59c1.25,3.76,2.69,7.51,4,11.25l2.15,5.39,1.07,2.71,1.26,3,2.54,6c.15.43,0-.15,0,0l.16.36.32.71.64,1.42,1.29,2.86c1.68,3.81,3.42,7.64,5.28,11.43q10.92,22.86,24.4,45.5c35.83,60.42,84.75,118.13,138.8,171.57,27,26.75,55.31,52.72,83.63,77.7,28.72,25.31,57.7,50.24,85.74,75.38s55.16,50.47,80.3,76.08a956.1,956.1,0,0,1,68.54,77.35,680.23,680.23,0,0,1,51.77,75.1,582.05,582.05,0,0,1,33.27,64.86c4.21,9.35,7.4,18,10.41,25.47,2.81,8.07,5.21,14.94,7.16,20.51l4.48,13.41Z" fill="#cedc2e"/><path d="M1219.54,1700.22s0-4.92-.14-14.14c-.05-3.31-.11-7.41-.18-12.23-.38-5.26-.53-11.47-1.3-18.38a400.51,400.51,0,0,0-8-50.54,508.33,508.33,0,0,0-19.91-66.79,793.32,793.32,0,0,0-34.91-79.79c-14.17-28.38-30.7-58.32-48.92-89.5s-37.94-63.62-58-97.27c-20.26-34.1-40.18-69.09-58.89-105.22s-36-73.15-50.79-110.76-27-75.73-35.57-113.44c-4.31-18.85-7.73-37.59-10.2-56-.67-4.6-1.2-9.19-1.69-13.77l-.8-7.17-.49-6.51-.23-3.24-.21-3.56-.39-7.08c-.12-4.59-.3-9.08-.3-13.57a428.85,428.85,0,0,1,11.13-99c13.79-59.73,37.07-105,55.86-134.13a354.72,354.72,0,0,1,23.54-32.64c2.87-3.63,5.22-6.27,6.77-8.09s-.1.55-.1.55l.56-.21c-1.23,2-3.13,5-5.37,9a349.68,349.68,0,0,0-17.79,35.43,388.87,388.87,0,0,0-19.91,57.66,413.71,413.71,0,0,0-12.52,77.08,389.07,389.07,0,0,0,4.28,90.49c.62,3.91,1.43,7.85,2.16,11.76l1.24,5.67.61,2.84.77,3.16,1.51,6.35c.09.45,0-.16,0,0l.1.38.2.76.4,1.51.8,3C944,867,945,871,946.26,875.05q7.05,24.33,16.65,48.89c25.5,65.44,64.37,130.35,109,191.88,22.25,30.78,46,61,69.85,90.3,24.21,29.65,48.74,59,72.31,88.35s46.19,58.78,66.83,88.15a955.34,955.34,0,0,1,55,87.48,683.61,683.61,0,0,1,38.84,82.54,582.34,582.34,0,0,1,22.25,69.42c2.63,9.91,4.37,18.92,6.11,26.82,1.47,8.42,2.71,15.59,3.73,21.4,1.45,9.1,2.23,14,2.23,14Z" fill="#fcee1f"/><path d="M1041.21,1729.71s.7-4.88,2-14.06c.47-3.3,1-7.38,1.69-12.18.42-5.27,1.22-11.46,1.5-18.45a402.08,402.08,0,0,0-.28-51.42,510.68,510.68,0,0,0-9.53-69.34,802.94,802.94,0,0,0-22.41-84.53c-9.71-30.32-21.51-62.56-34.79-96.28s-27.85-68.92-42.54-105.37c-14.87-36.92-29.25-74.69-42.27-113.4S870,1086.59,861.16,1047,846,967.71,843.22,929c-1.41-19.37-1.94-38.5-1.6-57.19,0-4.67.22-9.31.43-13.94l.3-7.24.5-6.54.26-3.26.33-3.56.69-7.09c.58-4.57,1.1-9.07,1.76-13.52a432.13,432.13,0,0,1,26-96.63c22.7-57.24,52.58-98.67,75.56-124.81a357.52,357.52,0,0,1,28.22-28.86c3.39-3.17,6.12-5.45,7.93-7l2.73-2.36s-.8.94-2.33,2.77-3.85,4.51-6.68,8.16a351.64,351.64,0,0,0-23,32.52A391.77,391.77,0,0,0,926,654.63a418.13,418.13,0,0,0-24.08,74.69,392.66,392.66,0,0,0-9.49,90.53c0,4,.22,8,.35,12l.36,5.82.18,2.91.27,3.26.54,6.53c0,.46,0-.16,0,0l0,.39.09.78.16,1.57.34,3.11c.42,4.18.89,8.37,1.47,12.57,2.19,16.82,5.22,33.88,9,51.07,15.28,68.86,43.85,139.18,78.62,207,17.32,33.94,36.18,67.57,55.34,100.24,19.45,33.1,39.25,65.92,58.08,98.66s36.75,65.37,52.7,97.66a959.13,959.13,0,0,1,41.1,95.18,686.25,686.25,0,0,1,25.88,87.85,587.34,587.34,0,0,1,11.48,72.31c1.1,10.24,1.44,19.46,2,27.57.17,8.59.33,15.89.44,21.82.06,9.25.09,14.19.09,14.19Z" fill="#fdc212"/><path d="M1564.64,1603.14l-4.49-13.76-3.94-11.88c-2-5-4-11-6.92-17.53a408.76,408.76,0,0,0-23.38-46.83,522.1,522.1,0,0,0-40-59,815,815,0,0,0-58.61-67.11c-22.56-23.32-47.89-47.45-75.25-72.25s-56.6-50.4-86.48-77.08c-30.27-27-60.46-55-89.83-84.53s-57.67-60.28-83.63-92.43-49.61-65.59-69.59-99.73c-10-17.06-19.11-34.29-27.19-51.53-2.06-4.28-4-8.6-5.88-12.91l-3-6.75-2.48-6.2-1.23-3.09-1.3-3.41-2.55-6.79c-1.54-4.42-3.1-8.75-4.47-13.14a438.42,438.42,0,0,1-19.59-100c-4.92-62.52,3.88-113.81,13.22-148A366.36,366.36,0,0,1,981,570.05c1.69-4.42,3.17-7.73,4.11-10s1.45-3.4,1.45-3.4l-.9,3.59c-.57,2.37-1.5,5.85-2.45,10.47a354.24,354.24,0,0,0-6.45,40,396.23,396.23,0,0,0-1.69,62.37,423.85,423.85,0,0,0,11.49,79.05,398.52,398.52,0,0,0,32,87c1.81,3.63,3.82,7.21,5.72,10.81l3,5.14,1.47,2.59,1.71,2.85,3.43,5.72c.22.41-.06-.15,0,0l.21.35.43.67.85,1.35,1.72,2.7c2.26,3.63,4.57,7.24,7,10.82q14.36,21.55,31.28,42.55c45,56,102.89,107.36,165.35,153.68,31.16,23.2,63.62,45.41,95.91,66.61,32.74,21.48,65.69,42.55,97.72,64s63.15,43.14,92.32,65.45a977.72,977.72,0,0,1,80.57,68.41,698.49,698.49,0,0,1,63.29,68.59,595.17,595.17,0,0,1,43.06,60.87c5.62,8.86,10.09,17.12,14.21,24.29,4,7.76,7.45,14.37,10.22,19.73l6.47,12.93Z" fill="#8ec73f"/><path d="M1760.77,1553.74s-2.41-4.73-6.92-13.62c-1.64-3.18-3.65-7.11-6-11.74-2.9-4.91-6-10.83-10.08-17.15a428.09,428.09,0,0,0-32-45,550.23,550.23,0,0,0-51.38-55,854.25,854.25,0,0,0-72.23-60.35c-27.38-20.63-57.82-41.62-90.47-63s-67.42-43.25-103-66.16c-36.08-23.21-72.23-47.45-107.75-73.39s-70.12-53.38-102.51-82.65-62.54-60.25-89-92.59q-19.84-24.23-36.79-49.27c-2.85-4.13-5.57-8.33-8.24-12.52l-4.22-6.54-3.6-6.07-1.79-3-1.9-3.35-3.77-6.65c-2.32-4.37-4.65-8.63-6.79-13a460.5,460.5,0,0,1-36.64-101.09c-15.22-64.43-14.25-119.41-10-156.67A378.32,378.32,0,0,1,982.91,572c1.05-4.89,2.07-8.59,2.69-11.09s1-3.79,1-3.79-.13,1.33-.36,3.9-.63,6.35-.88,11.32a373.69,373.69,0,0,0-.32,42.85,416.91,416.91,0,0,0,8.29,65.36,444,444,0,0,0,24.76,80.6,417.74,417.74,0,0,0,47.55,85.46c2.48,3.5,5.15,6.91,7.73,10.34l4,4.89,2,2.44,2.25,2.7,4.52,5.42c.28.37-.09-.16,0,0l.28.33.56.62,1.12,1.28,2.23,2.54c3,3.4,6,6.79,9.08,10.11q18.51,20.15,39.65,39.26c56.16,51,125.08,95.05,198,133.09,36.4,19.05,74,36.87,111.22,53.67,37.77,17,75.69,33.55,112.7,50.61s73.12,34.6,107.27,53.06,66.32,37.92,95.44,58.11a732.43,732.43,0,0,1,77.36,61.12,623.22,623.22,0,0,1,54.93,56.42c7.31,8.31,13.33,16.19,18.8,23,5.47,7.44,10.13,13.77,13.88,18.91,5.78,8.11,8.87,12.42,8.87,12.42Z" fill="#6ca442"/><path d="M551.76,1641.6s2.67-4.13,7.64-11.9c1.79-2.8,4-6.25,6.56-10.32,2.57-4.62,5.85-9.88,9-16.08a401,401,0,0,0,21-46.67,508.85,508.85,0,0,0,20-66.75A797.14,797.14,0,0,0,630.54,1404c3.72-31.5,6.32-65.61,8.19-101.66s3.18-74,4.89-113.14c1.76-39.64,4.3-79.8,8.47-120.28s10-80.94,18.3-120.48,19-78.11,32.48-114.36c6.74-18.13,14.15-35.66,22.2-52.44,2-4.21,4-8.34,6.16-12.44l3.26-6.43,3.16-5.7,1.58-2.85,1.78-3.1,3.56-6.12c2.41-3.91,4.72-7.76,7.18-11.51a428.23,428.23,0,0,1,63.59-76.64c44.31-42.38,88.59-67.43,120.29-81.53A356.35,356.35,0,0,1,973.22,561c4.38-1.46,7.81-2.39,10.1-3.07l3.47-1-3.28,1.55c-2.15,1-5.36,2.48-9.44,4.6a351.49,351.49,0,0,0-34.31,19.87,388.56,388.56,0,0,0-48.27,37.29,414.29,414.29,0,0,0-52.75,57.58,389.71,389.71,0,0,0-46.07,78c-1.62,3.61-3.1,7.34-4.64,11L786,772.24,784.91,775,783.82,778l-2.21,6.14c-.18.41.07-.14,0,.05l-.11.38-.25.74-.5,1.47-1,3c-1.34,4-2.64,7.94-3.85,12q-7.44,24.19-12.89,50c-14.58,68.71-17.68,144.3-14.14,220.22,1.71,37.94,5,76.25,8.87,113.82,4,38.06,8.4,76,12,113.52s6.39,74.5,7.51,110.37a951.49,951.49,0,0,1-2,103.31,681.28,681.28,0,0,1-12.8,90.33A583.08,583.08,0,0,1,743,1673.57c-3.23,9.73-6.72,18.23-9.59,25.77l-8.63,19.94L719,1732.19Z" fill="#c92027"/><path d="M380.79,1555.92l9.48-10.5,8.16-9.11c3.28-4.13,7.37-8.79,11.49-14.4a400.08,400.08,0,0,0,28.33-42.6,510.59,510.59,0,0,0,30.6-62.61,792.43,792.43,0,0,0,28.37-82.34c8.81-30.46,16.92-63.69,24.64-98.95s15.2-72.5,23.27-110.81c8.19-38.81,17.24-78,28-117.29s23-78.21,37.66-115.86,31.47-74,50.69-107.53c9.6-16.78,19.78-32.88,30.44-48.12,2.63-3.84,5.36-7.56,8.1-11.26l4.27-5.82,4-5.12,2-2.54,2.25-2.76,4.51-5.47c3-3.46,5.94-6.88,9-10.18a427.51,427.51,0,0,1,75.23-65.24c50.61-34.58,98.38-52.08,132-60.81a354,354,0,0,1,39.43-8.05c4.56-.72,8.09-1.07,10.45-1.37l3.58-.43a14.9,14.9,0,0,1-3.61,1.48c-2.28.67-4.3,1.28-8.67,2.71a334.64,334.64,0,0,0-35.52,13.75A425.61,425.61,0,0,0,883.18,605c-19.72,12.67-41.62,27.23-62.24,46.83a389.67,389.67,0,0,0-58.15,69.45c-2.19,3.3-4.27,6.75-6.37,10.12l-2.93,5L752,739l-1.58,2.84-3.19,5.7c-.24.38.12-.13,0,0l-.19.34-.36.71L746,750l-1.46,2.77c-2,3.68-3.9,7.4-5.76,11.2-7.52,15.1-14.48,30.88-20.86,47.22-25.57,65.41-40.95,139.48-49.83,214.94-4.49,37.73-7.53,76-9.79,113.74-2.29,38.21-4.1,76.4-6.67,114s-5.84,74.53-10.57,110.11a952.77,952.77,0,0,1-18.79,101.6,680.06,680.06,0,0,1-27.35,87,581.77,581.77,0,0,1-30.65,66.12c-4.78,9.08-9.6,16.89-13.68,23.87-4.61,7.19-8.56,13.31-11.75,18.27L531,1672.55Z" fill="#eb0d8a"/><path d="M232.54,1456.54s3.83-3.11,11-9l9.49-7.82c3.89-3.6,8.67-7.61,13.61-12.56a402.83,402.83,0,0,0,34.63-38,512.14,512.14,0,0,0,40-57.47A801.94,801.94,0,0,0,382,1254.36c13.4-28.89,26.57-60.59,39.64-94.39s26.21-69.55,40.1-106.33c14.07-37.23,29.09-74.74,45.74-112s34.87-74.06,55.16-109.19,42.56-68.6,66.77-99c12.09-15.21,24.66-29.64,37.59-43.15,3.18-3.41,6.46-6.7,9.74-10l5.13-5.13,4.81-4.47,2.39-2.22,2.65-2.4,5.32-4.74c3.52-3,6.94-5.93,10.45-8.75a432,432,0,0,1,84.61-53.45c55.48-26.72,105.51-36.95,140.13-40.61a355.08,355.08,0,0,1,40.32-2.1c4.64-.05,8.19.14,10.58.2l3.62.1-3.6.47c-2.37.32-5.89.71-10.43,1.48a348.72,348.72,0,0,0-38.93,8.36,390.5,390.5,0,0,0-57.67,20.65,419,419,0,0,0-68.3,38.62,392,392,0,0,0-68.32,60.17c-2.68,2.92-5.26,6-7.87,9L728,700.08l-1.84,2.27-2,2.58-4,5.17c-.29.35.13-.1,0,0l-.25.3-.46.65-.94,1.25-1.87,2.53c-2.52,3.35-5,6.74-7.43,10.24q-14.68,20.77-27.94,43.69c-35.41,61-62,132.08-82.44,205.55-10.26,36.7-19.16,74.21-27.21,111.22-8.12,37.53-15.8,75.08-24.13,111.92s-17.25,73-27.4,107.53a953.87,953.87,0,0,1-34.26,97.85A684.89,684.89,0,0,1,445.3,1485a590.83,590.83,0,0,1-40.56,61c-6.13,8.28-12.12,15.29-17.22,21.59-5.7,6.44-10.53,11.93-14.47,16.35l-9.55,10.52Z" fill="#c4178d"/><path d="M702.55,1718.14s2.09-4.58,6-13.15c1.4-3.11,3.12-6.93,5.16-11.42,1.92-5,4.48-10.84,6.78-17.58a408.94,408.94,0,0,0,14.53-50.3,520.68,520.68,0,0,0,10.61-70.49,815.74,815.74,0,0,0,2.35-89.07c-.78-32.44-3.08-67.35-6.4-104.13s-7.47-75.41-11.38-115.27c-4-40.39-7.19-81.44-8.8-123s-1.58-83.38,1.1-124.64,8-81.85,16.38-120.5c4.21-19.32,9.18-38.16,14.92-56.32,1.38-4.54,2.88-9,4.42-13.48l2.38-7,2.38-6.23,1.18-3.12,1.36-3.39,2.72-6.71c1.87-4.29,3.66-8.54,5.62-12.69A437.86,437.86,0,0,1,827.2,682.8c38.74-49.31,80-81.08,110-99.93a361.1,361.1,0,0,1,36-20c4.24-2.11,7.57-3.54,9.78-4.56l3.37-1.51-3.09,2c-2,1.35-5.08,3.28-8.89,6A358.49,358.49,0,0,0,942.51,590,396.34,396.34,0,0,0,899,634.7a422.27,422.27,0,0,0-45.11,65.93,398.34,398.34,0,0,0-35.37,85.65c-1.13,3.9-2.08,7.89-3.12,11.83l-1.31,5.79-.67,2.9-.67,3.25-1.35,6.54c-.11.45.07-.15,0,0l-.07.4-.14.78-.3,1.58-.56,3.15c-.79,4.2-1.53,8.42-2.17,12.69-2.7,17.06-4.65,34.6-5.82,52.5-4.84,71.69,2.94,148.68,17.49,225,7.21,38.19,16,76.51,25.42,114,9.53,38,19.5,75.8,28.55,113.24s17.22,74.52,23.56,110.68a976.22,976.22,0,0,1,12.91,104.92,696.57,696.57,0,0,1,.09,93.32,595.76,595.76,0,0,1-9.57,73.94c-1.87,10.34-4.17,19.43-6,27.5L889,1771.81c-2.62,9.06-4,13.89-4,13.89Z" fill="#ed1c24"/><path d="M880.28,1814.68s1.44-5.1,4.14-14.7c1-3.46,2.12-7.72,3.51-12.73,1.19-5.57,2.91-12,4.21-19.43a430.56,430.56,0,0,0,6.94-54.83,551.64,551.64,0,0,0-.53-75.28,855.2,855.2,0,0,0-12.23-93.32c-6.18-33.71-14.35-69.78-23.88-107.63s-20.29-77.48-31-118.45c-10.8-41.51-21-83.83-29.51-127s-15.42-86.77-19.4-130.24-5.18-86.68-2.73-128.39c1.21-20.85,3.32-41.29,6.33-61.16.71-5,1.54-9.89,2.41-14.79l1.34-7.67,1.46-6.89.73-3.45L793,835l1.73-7.45c1.26-4.79,2.43-9.51,3.81-14.15a459.36,459.36,0,0,1,41.53-99.18c32.46-57.7,70.42-97.48,98.82-122a376.48,376.48,0,0,1,34.41-26.64c4.08-2.89,7.59-5.32,9.75-6.74a23.85,23.85,0,0,1,3.24-1.86s-1.22,1-3.12,2.76-4.77,4.25-8.33,7.72a375.75,375.75,0,0,0-29.25,31.31,415.22,415.22,0,0,0-38.19,53.7,442.71,442.71,0,0,0-36.39,76,418.08,418.08,0,0,0-22.94,95.09c-.54,4.24-.88,8.56-1.31,12.84l-.41,6.27-.21,3.11-.18,3.52-.35,7c0,.47,0-.18,0,0l0,.44v.83l0,1.7-.08,3.38c-.14,4.51-.22,9-.18,13.59q0,27.36,2.57,55.74c6.75,75.58,27.61,154.67,55.46,232,13.85,38.67,29.43,77.24,45.44,114.82,16.25,38.1,32.93,76,48.59,113.57s30.35,75,42.95,111.71,23.1,72.83,30.84,107.4a732,732,0,0,1,15.49,97.36,622.62,622.62,0,0,1,2.18,78.71c-.26,11.08-1.16,21-1.75,29.67-1,9.17-1.89,17-2.6,23.3l-1.9,15.15Z" fill="#f26322"/><path d="M-69.89,1062.27l13.7-3.51,11.83-3.1c5-1.62,11-3.24,17.54-5.64a401.1,401.1,0,0,0,47.17-19.87,508,508,0,0,0,60.11-35.26A796.92,796.92,0,0,0,149.62,942c24.17-20.54,49.3-43.73,75.23-68.87s52.73-52,80.63-79.51c28.28-27.81,57.5-55.5,88.13-82.29a1174,1174,0,0,1,95.44-75.77c33-23.32,67.1-44.26,101.67-61.6,17.27-8.69,34.65-16.47,52-23.28,4.31-1.74,8.65-3.36,13-4.92l6.77-2.49,6.2-2,3.09-1,3.41-1.06,6.78-2.06c4.43-1.21,8.75-2.46,13.11-3.53a427.82,427.82,0,0,1,98.76-12.81c61.3-.86,110.78,11,143.59,22.23A354.06,354.06,0,0,1,974.69,558c4.2,1.92,7.34,3.57,9.48,4.63a11.11,11.11,0,0,0,2.21,1s-.16.23-2.43-.49-5.62-1.84-10.06-3.06a351,351,0,0,0-38.65-8.83,388.26,388.26,0,0,0-60.75-5.56A413.37,413.37,0,0,0,796.65,552a388.75,388.75,0,0,0-86.85,25.75c-3.65,1.54-7.29,3.26-10.9,4.9l-5.21,2.56-2.61,1.28-2.9,1.48-5.8,3c-.41.19.15,0,0,.06l-.35.18-.69.37-1.36.75-2.75,1.51c-3.67,2-7.35,4-11,6.15q-21.94,12.64-43.49,27.83c-57.46,40.39-111.22,93.62-160.34,151.62-24.59,29-48.3,59.21-71,89.38-23,30.59-45.65,61.4-68.55,91.3S276.77,1019,253.18,1046a954.56,954.56,0,0,1-71.83,74.3,681.06,681.06,0,0,1-70.89,57.42,582.14,582.14,0,0,1-62.1,38.17c-9,4.93-17.34,8.76-24.59,12.33L3.88,1237l-13,5.5Z" fill="#2e3191"/><path d="M-135.4,884.07l14.09-1.22c3.3-.31,7.38-.69,12.18-1.12,5.22-.79,11.39-1.42,18.22-2.72A399.64,399.64,0,0,0-41.13,867.1a508.38,508.38,0,0,0,65-25,792.63,792.63,0,0,0,76.87-41c27.2-16.31,55.78-35.11,85.46-55.68s60.5-42.74,92.51-65.29c32.43-22.84,65.78-45.4,100.36-66.85a1182.42,1182.42,0,0,1,106.51-59.18C522,536.5,559,521.41,596,509.93c18.46-5.75,36.88-10.61,55.07-14.49,4.54-1,9.08-1.91,13.61-2.75l7.09-1.35,6.45-1,3.21-.49,3.53-.48,7-.93c4.56-.47,9-1,13.5-1.35A428.63,428.63,0,0,1,805,490.56c60.62,9.15,107.52,28.87,138,45.34a352.68,352.68,0,0,1,34.35,21c3.84,2.58,6.66,4.72,8.6,6.12s-.56-.05-.56-.05l.25.54c-2.13-1.07-5.24-2.73-9.41-4.66a348.35,348.35,0,0,0-36.71-15,388.41,388.41,0,0,0-59-15.4,415.28,415.28,0,0,0-77.82-6.54,389,389,0,0,0-89.88,11.25c-3.85.92-7.72,2-11.56,3.06l-5.56,1.68-2.78.82-3.1,1-6.21,2c-.44.12.16,0,0,0l-.37.13-.75.26-1.47.51-2.94,1c-4,1.35-7.91,2.75-11.86,4.28q-23.7,8.91-47.44,20.37c-63.28,30.47-125,74.24-182.9,123.46-29,24.55-57.31,50.54-84.64,76.6-27.71,26.43-55,53.15-82.52,78.91s-55,50.59-82.73,73.43a954.27,954.27,0,0,1-83,61.6,683.52,683.52,0,0,1-79.29,45.09,579.46,579.46,0,0,1-67.5,27.53c-9.68,3.4-18.53,5.82-26.27,8.17l-21,5.36-13.74,3.31Z" fill="#0854a5"/><path d="M-178.56,708.55l14.18.91,12.27.74c5.29,0,11.52.32,18.51.08A401.85,401.85,0,0,0-82.36,706,509.21,509.21,0,0,0-14,691.16,801.8,801.8,0,0,0,68.6,662.31c29.48-12,60.71-26.27,93.3-42.11s66.56-33.09,101.77-50.55c35.67-17.68,72.21-34.92,109.81-50.89s76-30.48,114.76-42.39,77.88-21.24,116.3-27c19.21-2.91,38.23-4.91,56.9-6,4.66-.32,9.3-.5,13.93-.64l7.24-.27h9.83l3.57.06,7.14.14c4.59.22,9.12.39,13.61.71a432,432,0,0,1,98.34,18.49c58.82,18.21,102.44,44.81,130.28,65.7a359.59,359.59,0,0,1,31,25.92c3.42,3.14,5.9,5.68,7.6,7.35l2.58,2.55s-1-.73-3-2.11-4.79-3.5-8.65-6a350.27,350.27,0,0,0-34.19-20.39,392.68,392.68,0,0,0-56.29-24.15,419.51,419.51,0,0,0-76.33-18.24,391.93,391.93,0,0,0-91-2.48c-4,.32-8,.84-11.94,1.28l-5.77.81-2.89.41-3.23.52-6.47,1c-.44.05.16,0,0,0l-.4.07-.77.14-1.54.29-3.07.58c-4.14.74-8.28,1.52-12.44,2.43-16.59,3.48-33.37,7.83-50.21,13C550.88,531.09,483,565,418,604.91c-32.51,19.88-64.58,41.28-95.67,62.9-31.51,22-62.7,44.21-93.89,65.53S166.1,775,135.13,793.4a959.41,959.41,0,0,1-91.72,48.33,687.21,687.21,0,0,1-85.59,32.58,590,590,0,0,1-71.21,17c-10.13,1.88-19.29,2.94-27.33,4.07-8.56.85-15.82,1.57-21.73,2.14l-14.15,1.18Z" fill="#1471b9"/><path d="M-12,1220.66l13.37-5.53c3.13-1.33,7-2.94,11.54-4.85,4.85-2.37,10.68-4.88,16.94-8.25a410.07,410.07,0,0,0,44.9-26.93,521.49,521.49,0,0,0,55.77-44.4,812,812,0,0,0,62.39-63.62c21.51-24.28,43.61-51.4,66.23-80.59s45.89-60.32,70.18-92.17c24.62-32.26,50.2-64.52,77.35-96.08s55.64-62.15,85.71-90.51,61.55-54.52,94.05-77.08c16.25-11.28,32.71-21.69,49.28-31.09,4.11-2.38,8.26-4.64,12.42-6.86l6.5-3.5,6-2.94,3-1.47,3.3-1.56,6.57-3.06c4.31-1.88,8.5-3.76,12.77-5.47a437.78,437.78,0,0,1,98.16-27.25c62-9.72,113.77-4.91,148.62,1.76a365.55,365.55,0,0,1,40,9.89c4.54,1.34,8,2.56,10.28,3.32l3.49,1.19-3.65-.62c-2.4-.38-6-1-10.62-1.64A358.77,358.77,0,0,0,932.09,558a395.71,395.71,0,0,0-62.32,3.13,424.1,424.1,0,0,0-77.93,17.55,398.28,398.28,0,0,0-84.24,38.63c-3.48,2.08-6.9,4.36-10.34,6.54l-4.9,3.36-2.46,1.66-2.71,1.93-5.45,3.86c-.38.25.16-.06,0,.05l-.33.24-.63.48-1.29.95-2.56,1.92c-3.44,2.54-6.86,5.13-10.24,7.82q-20.38,16-40,34.48c-52.36,49.19-99.1,110.87-140.46,176.7-20.72,32.87-40.37,67-59,100.78-18.89,34.29-37.35,68.78-56.22,102.35s-38.13,66.29-58.13,97.1a974,974,0,0,1-62,85.61,697,697,0,0,1-63.5,68.39A593.27,593.27,0,0,1,130,1359.17c-8.4,6.28-16.29,11.38-23.12,16L88,1386.93l-12.39,7.45Z" fill="#5854a4"/><path d="M52.4,1412.39l13-7.94q4.57-2.84,11.25-6.93c4.67-3.27,10.33-6.83,16.32-11.37a429,429,0,0,0,42.41-35.42,549.69,549.69,0,0,0,50.89-55.47,853,853,0,0,0,54.59-76.67c18.45-28.89,37-60.85,55.83-95.06s37.92-70.56,58-107.82C375.09,978,396.48,940,419.6,902.63s47.81-74,74.5-108.58,55.24-67,85.44-95.87c15.09-14.43,30.56-28,46.29-40.47,3.9-3.16,7.87-6.2,11.84-9.2l6.21-4.7,5.76-4,2.88-2,3.19-2.15,6.35-4.27c4.18-2.66,8.24-5.31,12.41-7.78a459.33,459.33,0,0,1,98-44.32c63.07-20.15,118-23.43,155.44-22a380.94,380.94,0,0,1,43.35,3.93c4.95.67,8.72,1.4,11.26,1.82l3.85.69-3.9-.06c-2.58,0-6.4-.15-11.36,0a375.43,375.43,0,0,0-42.75,3,418.77,418.77,0,0,0-64.53,13.31,443.22,443.22,0,0,0-78.44,30.91,417.38,417.38,0,0,0-81.55,54c-3.29,2.74-6.49,5.68-9.72,8.51l-4.56,4.31-2.28,2.15-2.52,2.45-5.05,4.91c-.35.33.15-.1,0,0l-.31.32-.57.6-1.19,1.22-2.36,2.41c-3.17,3.21-6.31,6.47-9.39,9.84q-18.65,20-36.07,42.55C583.23,804,544.65,876.11,512.36,951.73c-16.19,37.76-31.05,76.61-44.94,115-14,39-27.61,78-41.76,116.27s-28.86,75.56-44.63,111-32.69,69.06-50.56,99.64a732.71,732.71,0,0,1-55,81.85,624.07,624.07,0,0,1-52,59.12c-7.73,7.93-15.12,14.54-21.48,20.52l-17.78,15.3-11.7,9.79Z" fill="#652c90"/><path d="M-128.47,213.77l12.46,6.7,10.79,5.74c4.8,2.21,10.3,5.06,16.73,7.73a400.64,400.64,0,0,0,48.14,17.34,510.45,510.45,0,0,0,68.11,14.8,794.17,794.17,0,0,0,86.73,7.9c31.7,1.28,65.9,1.24,102,.33s74-2.55,113.18-3.86c39.66-1.3,79.9-1.87,120.58-.83s81.46,3.72,121.52,8.95,79.36,12.89,116.53,23.55c18.59,5.33,36.64,11.36,54,18.09,4.35,1.64,8.63,3.39,12.88,5.18l6.65,2.76,5.94,2.71,3,1.35,3.22,1.54,6.39,3.07c4.07,2.11,8.1,4.12,12,6.28a428.27,428.27,0,0,1,81.33,57.49c45.67,40.9,74.06,83.12,90.56,113.64a357.45,357.45,0,0,1,17.22,36.37c1.79,4.26,3,7.6,3.83,9.83s1.27,3.39,1.27,3.39l-1.8-3.15c-1.19-2.06-2.87-5.15-5.32-9.06A351.09,351.09,0,0,0,957,518.93a389.3,389.3,0,0,0-40.9-45.25,415.27,415.27,0,0,0-61.47-48.15,389.4,389.4,0,0,0-81.34-39.91c-3.73-1.34-7.56-2.53-11.33-3.78l-5.58-1.64-2.78-.84-3.14-.85-6.3-1.73c-.42-.16.15.06,0,0l-.38-.09-.76-.19-1.52-.38-3-.77c-4-1-8.12-2-12.26-2.91q-24.7-5.55-50.85-9c-69.62-9.24-145.22-6.49-220.65,2.89C417,371,379,377.18,341.87,384c-37.65,6.9-75.16,14.23-112.26,20.71s-73.79,12.11-109.47,16a953.05,953.05,0,0,1-103.15,6,682.08,682.08,0,0,1-91-5.8,582.75,582.75,0,0,1-71.53-14c-9.95-2.48-18.69-5.31-26.44-7.59l-20.54-7.06-13.32-4.78Z" fill="#219647"/><path d="M-56.23,36.7-45,45.34l9.71,7.43C-31,55.72-26,59.43-20.08,63.11a397.86,397.86,0,0,0,44.67,25,510.39,510.39,0,0,0,64.77,25.68,796,796,0,0,0,84.29,21.94c31,6.43,64.8,12,100.56,16.93s73.45,9.56,112.27,14.64c39.33,5.18,79.14,11.18,119.09,18.84S585.33,203,624,214.71,700.17,240.37,735.11,257c17.47,8.26,34.31,17.17,50.33,26.63,4,2.33,8,4.76,11.85,7.2l6.14,3.81,5.41,3.64,2.69,1.82,2.92,2,5.81,4.07c3.67,2.74,7.31,5.39,10.84,8.16a427.12,427.12,0,0,1,70.85,70c38.38,47.79,59.51,94.07,70.81,126.87a353.7,353.7,0,0,1,11.06,38.68c1.08,4.5,1.7,8,2.18,10.32s.7,3.53.7,3.53a15.41,15.41,0,0,1-1.76-3.48c-.84-2.22-1.6-4.19-3.37-8.44a332.73,332.73,0,0,0-16.44-34.35,425.53,425.53,0,0,0-34.56-53.2c-14.15-18.68-30.36-39.4-51.49-58.44a389.47,389.47,0,0,0-73.73-52.62c-3.46-1.94-7.06-3.74-10.57-5.57l-5.23-2.54-2.61-1.28-3-1.35-5.92-2.74c-.4-.22.13.1,0,0l-.35-.16-.73-.31-1.44-.63-2.86-1.23c-3.82-1.68-7.69-3.33-11.61-4.89-15.65-6.33-31.92-12.05-48.7-17.15-67.19-20.45-142.22-30.07-218.15-33.1-37.95-1.56-76.39-1.64-114.14-1-38.28.66-76.49,1.8-114.14,2.13s-74.77-.06-110.59-2A950.39,950.39,0,0,1,52.55,270.46a682.43,682.43,0,0,1-88.87-20.55,582.82,582.82,0,0,1-68.29-25.47c-9.43-4.06-17.58-8.26-24.86-11.79l-19.12-10.31-12.34-6.88Z" fill="#6ca442"/><path d="M31.41-118.78s3.4,3.57,9.81,10.27c2.31,2.41,5.17,5.38,8.53,8.86C53.64-96,58-91.59,63.31-87a406.17,406.17,0,0,0,40.56,31.59A511.14,511.14,0,0,0,164.25-20a802.6,802.6,0,0,0,80.27,34.71C274.36,25.79,307,36.47,341.69,46.9s71.37,20.76,109.1,31.77c38.21,11.16,76.77,23.24,115.24,37s76.53,29,113.12,46.57S750.82,199.34,783,221.15c16.09,10.87,31.45,22.29,45.92,34.14,3.65,2.91,7.18,5.92,10.68,8.94l5.51,4.71,4.82,4.46,2.4,2.21,2.6,2.46,5.14,4.94c3.23,3.27,6.45,6.46,9.53,9.74A432.27,432.27,0,0,1,929.41,373c30.92,53.26,45,102.35,51.29,136.59a358,358,0,0,1,5.22,40c.4,4.63.49,8.18.61,10.56s.17,3.62.17,3.62l-.73-3.54c-.51-2.34-1.17-5.83-2.29-10.29a349.84,349.84,0,0,0-11.33-38.17,392.6,392.6,0,0,0-25-55.9,419.77,419.77,0,0,0-43.78-65.13,392.69,392.69,0,0,0-65.26-63.47c-3.11-2.45-6.42-4.78-9.63-7.15l-4.8-3.32-2.41-1.65-2.73-1.82-5.46-3.61c-.36-.26.12.12,0,0l-.32-.22-.67-.41-1.33-.85-2.67-1.66c-3.53-2.25-7.11-4.47-10.78-6.62q-21.85-13-45.72-24.49c-63.54-30.59-136.47-51.67-211.29-66.33-37.39-7.4-75.47-13.38-113-18.55-38-5.2-76.07-10-113.45-15.42s-74.09-11.57-109.32-19a958.36,958.36,0,0,1-100.21-26.61,687,687,0,0,1-85-34,590.37,590.37,0,0,1-63.9-35.73c-8.73-5.47-16.19-10.9-22.87-15.5-6.85-5.19-12.7-9.59-17.41-13.17L-96,22.43Z" fill="#8ec73f"/><path d="M-193.14,370l13.57,5c3.2,1.16,7.15,2.57,11.78,4.26,5.18,1.53,11.16,3.64,18.06,5.41a412.36,412.36,0,0,0,51.26,10.61,523.5,523.5,0,0,0,71.1,5.13,815.45,815.45,0,0,0,89-4.52c32.28-3.29,66.92-8.28,103.33-14.42S239.55,368.2,279,361.23c40-7.06,80.65-13.45,122-18.27a1204.16,1204.16,0,0,1,124.36-8.51c41.31-.54,82.21,1.61,121.4,7,19.6,2.71,38.76,6.21,57.31,10.53,4.63,1,9.22,2.17,13.78,3.36l7.15,1.84,6.4,1.88,3.19,1,3.48,1.09,6.92,2.19c4.41,1.54,8.78,3,13.09,4.63a438,438,0,0,1,90.65,46.46c52.16,34.83,87,73.47,108.13,102a362.35,362.35,0,0,1,22.69,34.34c2.44,4.07,4.11,7.27,5.3,9.41s1.77,3.24,1.77,3.24l-2.27-2.92c-1.5-1.92-3.66-4.81-6.69-8.41a359.35,359.35,0,0,0-27.46-29.84,397.11,397.11,0,0,0-48-39.91A422.67,422.67,0,0,0,833,442.41a399,399,0,0,0-88.13-28.65c-4-.82-8-1.47-12-2.2L727,410.7l-2.94-.44-3.3-.41-6.62-.84c-.45-.08.16.05,0,0l-.42,0-.78-.08-1.6-.17-3.19-.31c-4.25-.47-8.51-.88-12.82-1.18-17.21-1.38-34.85-2-52.8-1.76-71.84.7-148,14.4-223,34.81-37.51,10.13-75,21.88-111.66,34.13-37.14,12.43-74.07,25.29-110.71,37.2s-73,22.91-108.54,32a975.34,975.34,0,0,1-103.6,21,698.54,698.54,0,0,1-93,7.3,595.81,595.81,0,0,1-74.47-3.85c-10.44-1.07-19.69-2.65-27.88-3.86L-232.27,560l-14.16-2.91Z" fill="#2dabe2"/><path d="M-275.69,554.66l15,3,13,2.52c5.63.76,12.22,2,19.69,2.69a427.69,427.69,0,0,0,55.19,2.69,549.19,549.19,0,0,0,75-6.33c28-4.13,59-10.66,92.09-19.38s68.47-19.7,105.46-32.13,75.7-26.2,115.71-40c40.56-14,82-27.37,124.33-39.22s85.32-22.06,128.36-29.39,86-11.85,127.79-12.63c20.88-.4,41.43.13,61.47,1.59,5,.33,10,.78,14.93,1.28l7.75.73,7,.94,3.48.44,3.81.59,7.56,1.14c4.87.89,9.66,1.69,14.4,2.71a459.26,459.26,0,0,1,102.09,33.76c60,27.91,102.63,62.69,129.25,89.11A377.53,377.53,0,0,1,976.87,551c3.19,3.84,5.88,7.15,7.46,9.2a23.5,23.5,0,0,1,2.11,3.09s-1.11-1.15-3-2.9-4.6-4.44-8.34-7.71A375.15,375.15,0,0,0,941.64,526,416.73,416.73,0,0,0,885.16,492a443.41,443.41,0,0,0-78.64-30.41A417.86,417.86,0,0,0,710,446.06c-4.28-.21-8.61-.21-12.9-.32l-6.3.08-3.12,0-3.52.1-7,.19c-.46,0,.19,0,0,.05h-.44l-.83.05-1.7.09-3.37.18c-4.5.22-9,.48-13.57.88-18.18,1.39-36.68,3.68-55.37,6.86-74.83,12.55-152.08,39.46-227,73.2-37.49,16.79-74.74,35.29-111,54.15-36.74,19.16-73.19,38.7-109.49,57.21s-72.42,36-108.06,51.44-70.83,28.66-104.7,39a737.41,737.41,0,0,1-95.87,23,627.8,627.8,0,0,1-78.31,8.24c-11.06.6-21,.45-29.71.54l-23.44-.79c-9.94-.48-15.25-.72-15.25-.72Z" fill="#1b8dcd"/><path d="M425.41-447.23l4.29,13.47,3.76,11.64c1.92,4.92,3.88,10.81,6.64,17.19A401.5,401.5,0,0,0,462.64-359a508.62,508.62,0,0,0,38.63,58,795.21,795.21,0,0,0,56.82,66c21.88,23,46.48,46.72,73,71.17s55,49.67,84,76c29.38,26.64,58.7,54.23,87.2,83.27a1177.32,1177.32,0,0,1,81.1,91c25.17,31.6,48,64.46,67.32,98,9.65,16.76,18.42,33.66,26.2,50.56,2,4.2,3.85,8.44,5.66,12.68l2.87,6.62,2.38,6.07,1.18,3,1.25,3.35,2.45,6.65c1.46,4.34,2.95,8.58,4.27,12.87a428.91,428.91,0,0,1,18.43,97.88c4.37,61.15-4.61,111.22-14,144.63a352.38,352.38,0,0,1-12.92,38.1c-1.67,4.31-3.14,7.53-4.08,9.73a10.81,10.81,0,0,0-.9,2.27s-.25-.15.35-2.46,1.52-5.71,2.48-10.21a350.71,350.71,0,0,0,6.6-39.1,389.21,389.21,0,0,0,2.08-61,412.89,412.89,0,0,0-10.67-77.36,388.89,388.89,0,0,0-30.66-85.23c-1.75-3.56-3.68-7.09-5.52-10.61l-2.86-5.05-1.43-2.55-1.65-2.79L939,276.88c-.21-.4,0,.15-.05,0l-.21-.34-.41-.66-.83-1.33-1.65-2.65c-2.18-3.56-4.42-7.11-6.77-10.62q-13.89-21.18-30.28-41.83C855.16,164.36,798.93,113.74,738.22,68c-30.31-22.9-61.88-44.84-93.29-65.8C613.07-19,581-39.83,549.86-61s-61.42-42.62-89.78-64.64a956,956,0,0,1-78.27-67.45,679.31,679.31,0,0,1-61.37-67.5,579.44,579.44,0,0,1-41.66-59.81c-5.43-8.71-9.74-16.81-13.72-23.85-3.89-7.62-7.18-14.1-9.86-19.36-4.06-8.28-6.23-12.69-6.23-12.69Z" fill="#fdc110"/><path d="M599.58-522.82s.7,4.87,2,14c.5,3.27,1.11,7.33,1.82,12.1,1.09,5.16,2.07,11.29,3.75,18a400.16,400.16,0,0,0,14.74,49,507.82,507.82,0,0,0,28.67,63.51,791.07,791.07,0,0,0,45.3,74.39c17.84,26.23,38.23,53.68,60.46,82.14s46.13,58,70.48,88.63c24.66,31.07,49.08,63.08,72.47,96.38S944.8,43,964.46,78.34s36.88,71.43,50.45,107.65c6.8,18.1,12.7,36.2,17.62,54.15,1.28,4.47,2.42,9,3.51,13.42l1.76,7,1.36,6.37.66,3.18.69,3.5,1.33,7c.73,4.52,1.51,9,2.12,13.4a428.75,428.75,0,0,1,2.23,99.56c-5.67,61.05-22.68,109-37.38,140.42a355.39,355.39,0,0,1-19,35.5c-2.35,4-4.33,6.91-5.62,8.92s0-.56,0-.56l-.53.29c.95-2.19,2.43-5.39,4.12-9.67a350.72,350.72,0,0,0,12.88-37.5,388.44,388.44,0,0,0,12-59.8,413.65,413.65,0,0,0,2.08-78.07A389.51,389.51,0,0,0,998.44,304c-1.15-3.79-2.47-7.59-3.72-11.36l-2-5.45-1-2.74-1.19-3-2.35-6.09c-.15-.43,0,.16-.05,0l-.14-.37-.31-.72-.59-1.44-1.2-2.89c-1.58-3.87-3.21-7.73-4.95-11.58q-10.25-23.16-23.06-46.21c-34-61.44-81.25-120.54-133.7-175.55C798,9,770.47-17.79,742.89-43.59c-28-26.14-56.21-51.91-83.49-77.87s-53.66-52.06-78-78.41a954.08,954.08,0,0,1-66.24-79.31,682.16,682.16,0,0,1-49.54-76.59,580,580,0,0,1-31.36-65.81c-3.94-9.47-6.87-18.17-9.65-25.76C422-455.49,419.79-462.42,418-468l-4.08-13.53Z" fill="#f26322"/><path d="M772.35-575.94s-.05,4.93-.1,14.2c0,3.34,0,7.46,0,12.3.28,5.28.33,11.52,1,18.48A402.27,402.27,0,0,0,780.36-480a509.89,509.89,0,0,0,18.75,67.44,798.51,798.51,0,0,0,33.53,80.77c13.69,28.74,29.7,59.11,47.38,90.75s36.83,64.56,56.27,98.72c19.69,34.59,39,70.09,57.08,106.7s34.78,74.11,48.88,112.16,25.66,76.54,33.6,114.57c4,19,7.08,37.89,9.24,56.47.6,4.62,1,9.25,1.45,13.86l.67,7.22.38,6.55.19,3.26.15,3.57.26,7.13c0,4.6.13,9.12.07,13.62A432.52,432.52,0,0,1,1075.43,402c-14.83,59.77-38.89,104.83-58.17,133.81a353.52,353.52,0,0,1-24.1,32.38c-2.92,3.6-5.32,6.22-6.9,8l-2.39,2.71,1.93-3.06c1.27-2,3.21-5,5.53-9a351.37,351.37,0,0,0,18.39-35.31,389.94,389.94,0,0,0,20.9-57.58,418.44,418.44,0,0,0,13.85-77.23,392.15,392.15,0,0,0-2.72-91c-.54-3.94-1.3-7.91-2-11.85l-1.14-5.72-.57-2.86-.7-3.2-1.41-6.39c-.08-.45,0,.16,0,0l-.07-.39-.2-.76-.37-1.53-.76-3c-1-4.08-2-8.17-3.14-12.26q-6.63-24.56-15.8-49.4c-24.37-66.18-62.11-132-105.67-194.63C888.2-17.59,865-48.39,841.65-78.19c-23.71-30.21-47.73-60.08-70.79-90S725.68-228,705.57-257.91a955.77,955.77,0,0,1-53.5-88.82,686.91,686.91,0,0,1-37.42-83.58,584.9,584.9,0,0,1-21-70.12c-2.46-10-4.05-19.1-5.64-27.05-1.34-8.5-2.46-15.72-3.37-21.57-1.3-9.16-2-14.06-2-14.06Z" fill="#ed1c24"/><path d="M270.6-380.37s2.18,4.54,6.28,13c1.5,3.06,3.34,6.82,5.5,11.25,2.65,4.7,5.48,10.38,9.21,16.44A408.1,408.1,0,0,0,321-296.36a521.52,521.52,0,0,0,47.51,53.14,812.65,812.65,0,0,0,67.08,58.65C461.1-164.48,489.44-144,519.88-123s62.83,42.37,96,64.8c33.62,22.73,67.29,46.42,100.35,71.73s65.22,52,95.27,80.39,57.94,58.34,82.32,89.5c12.2,15.57,23.53,31.42,33.85,47.42,2.62,4,5.12,8,7.56,12l3.86,6.29,3.29,5.81,1.63,2.89,1.75,3.21,3.44,6.38c2.11,4.19,4.24,8.27,6.19,12.43a437.91,437.91,0,0,1,32.8,96.45c13.25,61.29,11.41,113.31,6.74,148.48a360,360,0,0,1-7.59,40.46c-1.07,4.61-2.1,8.08-2.72,10.44s-1,3.56-1,3.56.14-1.25.4-3.67.71-6,1-10.7a359.14,359.14,0,0,0,1-40.54,396.91,396.91,0,0,0-6.69-62,423.39,423.39,0,0,0-22-76.8,398.33,398.33,0,0,0-43.38-81.9c-2.28-3.35-4.75-6.63-7.12-9.94l-3.63-4.7-1.81-2.36-2.07-2.6-4.17-5.22c-.27-.37.08.15,0,0l-.26-.31-.51-.61-1-1.23-2.06-2.44c-2.73-3.29-5.51-6.56-8.4-9.78q-17.1-19.43-36.7-38c-52.11-49.47-116.35-92.6-184.45-130.14-34-18.8-69.13-36.46-104-53.15C522.51,26.18,487,9.73,452.43-7.19s-68.36-34.29-100.26-52.5a978.15,978.15,0,0,1-89-57,696.93,696.93,0,0,1-71.91-59.48,593.61,593.61,0,0,1-50.82-54.55c-6.76-8-12.3-15.61-17.34-22.17-5-7.15-9.32-13.24-12.78-18.19L102.17-283Z" fill="#fcee1f"/><path d="M82.86-305.13s3,4.37,8.68,12.56q3.08,4.41,7.55,10.83c3.53,4.48,7.41,9.93,12.28,15.65a431.18,431.18,0,0,0,37.78,40.32,552.08,552.08,0,0,0,58.3,47.63A854.5,854.5,0,0,0,287.11-128C317-111.24,350-94.52,385.21-77.72s72.61,33.83,111,51.76C535-7.79,574.1,11.39,612.77,32.33s76.64,43.51,112.67,68.17,70,51.33,100.58,79.83c15.27,14.24,29.68,28.9,43.06,43.9,3.38,3.71,6.63,7.51,9.84,11.3l5.06,5.92,4.38,5.53,2.17,2.75,2.34,3.07,4.63,6.08c2.88,4,5.76,7.93,8.47,12a459.9,459.9,0,0,1,49.85,95.26C979.54,427.91,986,482.53,986.7,520a380.64,380.64,0,0,1-1.44,43.5c-.39,5-.9,8.79-1.18,11.35s-.46,3.89-.46,3.89,0-1.34-.17-3.91-.22-6.39-.64-11.34A374.14,374.14,0,0,0,977.39,521a418.51,418.51,0,0,0-17-63.66,444.52,444.52,0,0,0-35.34-76.55,418.69,418.69,0,0,0-58.57-78.32c-2.94-3.14-6-6.16-9.06-9.22L852.88,289l-2.27-2.16L848,284.42l-5.19-4.76c-.34-.33.11.14-.05,0l-.32-.28-.64-.54-1.28-1.13L838,275.5c-3.38-3-6.81-5.93-10.36-8.81q-21-17.48-44.54-33.58c-62.5-43-136.7-77.44-214-105.37-38.62-14-78.26-26.62-117.41-38.28-39.71-11.8-79.5-23.11-118.46-35S256.09,29.92,219.77,16.2,149-12.49,117.4-28.59A733.07,733.07,0,0,1,32.55-78.8a622.14,622.14,0,0,1-62-48.55c-8.36-7.26-15.38-14.26-21.72-20.27-6.41-6.64-11.88-12.29-16.29-16.88L-77.9-175.61Z" fill="#cedc2e"/><path d="M1271.4-555s-2.08,4.43-6,12.74c-1.39,3-3.09,6.7-5.09,11-1.93,4.89-4.47,10.51-6.75,17a397.29,397.29,0,0,0-14.53,48.77A505.79,505.79,0,0,0,1228.22-397a790.8,790.8,0,0,0-2.93,86.54c.54,31.53,2.53,65.47,5.5,101.25s6.76,73.35,10.29,112.12c3.55,39.28,6.41,79.19,7.7,119.63s.93,81.07-2,121.13-8.31,79.49-16.82,117c-4.23,18.76-9.22,37-14.93,54.62-1.37,4.41-2.88,8.76-4.42,13.08l-2.36,6.77-2.36,6-1.19,3-1.34,3.28-2.69,6.51c-1.87,4.17-3.64,8.27-5.57,12.29a426.51,426.51,0,0,1-52.6,84c-38.12,47.66-78.55,78.23-108,96.34a354.51,354.51,0,0,1-35.23,19.16c-4.14,2-7.41,3.39-9.57,4.37l-3.3,1.45,3-2c2-1.31,5-3.16,8.72-5.8a352.08,352.08,0,0,0,31.25-24.14,386.27,386.27,0,0,0,42.72-43.18,411.43,411.43,0,0,0,44.44-63.74,386.52,386.52,0,0,0,35.1-83c1.13-3.78,2.1-7.65,3.12-11.46l1.32-5.63.68-2.81.67-3.16,1.37-6.35c.12-.43-.06.15,0-.05l.07-.38.14-.77.3-1.52.58-3c.8-4.07,1.55-8.18,2.2-12.34,2.75-16.55,4.77-33.58,6.06-51,5.22-69.63-1.81-144.51-15.46-218.84-6.76-37.16-15.09-74.47-24-111-9-37-18.46-73.79-27-110.25s-16.27-72.54-22.18-107.74a947.25,947.25,0,0,1-11.84-102,680,680,0,0,1,.57-90.71,581.65,581.65,0,0,1,9.87-71.79c1.9-10,4.21-18.85,6-26.67l5.86-20.79c2.62-8.8,4-13.49,4-13.49Z" fill="#0854a5"/><path d="M1448.07-502.26l-8,11.69-6.88,10.14c-2.71,4.55-6.16,9.72-9.48,15.85a391.37,391.37,0,0,0-22.35,46.19,506.38,506.38,0,0,0-21.71,66.46A787.71,787.71,0,0,0,1363-266c-4.44,31.59-7.79,65.85-10.43,102.09s-4.76,74.43-7.31,113.77c-2.6,39.84-6,80.22-11.09,120.83s-11.83,81.13-21.08,120.63-20.93,77.94-35.42,113.93c-7.21,18-15.13,35.38-23.66,52-2.09,4.17-4.29,8.24-6.52,12.29l-3.45,6.36-3.32,5.63-1.67,2.79-1.87,3-3.75,6.05c-2.54,3.83-5,7.62-7.56,11.31a420,420,0,0,1-66.27,74.73c-45.93,41-91.51,64.48-124.06,77.44a356.25,356.25,0,0,1-38.53,13c-4.5,1.3-8,2.09-10.34,2.69l-3.54.87a14.75,14.75,0,0,1,3.41-1.93c2.21-1,4.16-1.82,8.35-3.81a333.69,333.69,0,0,0,33.78-18.22,421.45,421.45,0,0,0,51.69-37.38c18-15.15,38-32.48,55.88-54.68a383.17,383.17,0,0,0,48.47-76.79c1.72-3.57,3.31-7.28,4.94-10.91l2.21-5.39,1.14-2.69,1.16-3,2.4-6.1c.19-.41-.1.14,0-.05l.14-.36.26-.76.54-1.47,1.07-2.94c1.44-3.93,2.85-7.9,4.18-11.94,5.37-16.05,10.08-32.71,14.13-49.86,16.24-68.64,20.95-144.66,18.93-221.26-1-38.3-3.5-77-6.7-115-3.26-38.51-7-76.93-9.86-114.83s-5-75.29-5.38-111.46a949.92,949.92,0,0,1,4.15-104,674.8,674.8,0,0,1,14.88-90.47,573.59,573.59,0,0,1,21.25-70c3.5-9.68,7.21-18.1,10.31-25.6,3.6-7.77,6.68-14.39,9.17-19.76,4-8.32,6.17-12.76,6.17-12.76Z" fill="#1471b9"/><path d="M1611.62-415.24s-3.36,3.58-9.66,10.33c-2.27,2.43-5.06,5.43-8.33,9-3.36,4.06-7.56,8.65-11.78,14.17a403.27,403.27,0,0,0-29.14,42.06,509.05,509.05,0,0,0-31.82,61.94,797.48,797.48,0,0,0-30,81.64c-9.38,30.25-18.16,63.25-26.56,98.28s-16.61,72-25.42,110.1c-8.93,38.56-18.76,77.52-30.23,116.48s-24.57,77.61-39.93,114.93A795.33,795.33,0,0,1,1316,350.07c-9.91,16.59-20.41,32.49-31.38,47.52-2.7,3.78-5.49,7.46-8.3,11.11l-4.38,5.73-4.16,5.05-2.06,2.5-2.31,2.72-4.62,5.39c-3.08,3.39-6.06,6.76-9.15,10A430.28,430.28,0,0,1,1173.17,504c-51.26,33.72-99.35,50.47-133.07,58.68a358.56,358.56,0,0,1-39.56,7.45c-4.59.66-8.12,1-10.5,1.21s-3.58.38-3.58.38l3.49-.94c2.3-.63,5.73-1.49,10.11-2.85a348.3,348.3,0,0,0,37.36-13.42,391.19,391.19,0,0,0,54.24-28A417.62,417.62,0,0,0,1154,479.35,390.63,390.63,0,0,0,1213.48,411c2.26-3.24,4.39-6.65,6.56-10l3-5,1.51-2.48,1.65-2.81,3.29-5.63c.24-.37-.12.12,0,0l.21-.33.37-.7.76-1.37,1.51-2.74c2-3.63,4.05-7.31,6-11.08q11.73-22.42,21.79-46.76c26.83-64.81,43.66-138.4,54-213.5,5.24-37.52,9-75.66,12-113.2,3-38,5.58-76.07,8.89-113.48s7.29-74.2,12.7-109.59a946.43,946.43,0,0,1,20.78-101,682.72,682.72,0,0,1,29-86.33,586.18,586.18,0,0,1,32-65.46c5-9,9.92-16.69,14.14-23.57,4.76-7.11,8.81-13.16,12.11-18l8-11.64Z" fill="#238bcb"/><path d="M1112.14-610.34,1108-596.58c-1,3.24-2.17,7.24-3.57,11.92-1.23,5.23-3,11.29-4.36,18.24a410.57,410.57,0,0,0-7.65,51.48,521.18,521.18,0,0,0-1.06,70.87A812.22,812.22,0,0,0,1100.9-356c5.11,31.86,12,65.94,20.25,101.74s17.46,73.3,26.65,112.05c9.31,39.27,18,79.29,25.14,120.06a1193.18,1193.18,0,0,1,15.57,123c2.89,41,3.07,81.69-.09,120.9-1.57,19.6-4,38.82-7.21,57.47-.76,4.66-1.64,9.28-2.57,13.87l-1.41,7.2-1.52,6.46-.75,3.23-.9,3.51-1.78,7c-1.28,4.48-2.49,8.89-3.87,13.25a435.39,435.39,0,0,1-41.09,92.63c-31.7,53.74-68.19,90.53-95.39,113.11A361.17,361.17,0,0,1,999,563.89c-3.9,2.64-7,4.49-9.06,5.79l-3.13,1.94,2.78-2.41c1.82-1.6,4.58-3.91,8-7.12a356.65,356.65,0,0,0,28.15-29,396.27,396.27,0,0,0,37-49.87,420.46,420.46,0,0,0,35.77-71,395,395,0,0,0,23.51-89.1c.59-4,1-8.05,1.5-12.07l.52-5.88.27-2.94.22-3.3.47-6.62c.06-.46,0,.16,0,0l0-.4,0-.79.08-1.6.13-3.18c.23-4.24.39-8.49.45-12.8.39-17.16,0-34.7-1.26-52.5C1119.67,149.8,1101.69,75,1077.09,1.68,1064.86-35,1051-71.56,1036.74-107.22c-14.49-36.15-29.4-72.08-43.35-107.77s-27-71.11-38.07-105.91a964.6,964.6,0,0,1-26.79-101.63A691.33,691.33,0,0,1,916-514.47a588.53,588.53,0,0,1-.42-74.13c.47-10.42,1.53-19.69,2.25-27.89,1.15-8.61,2.13-16,2.92-21.89,1.38-9.28,2.1-14.22,2.1-14.22Z" fill="#2e318f"/><path d="M923.59-681.78s-.74,5.22-2.12,15c-.48,3.54-1.07,7.89-1.77,13-.44,5.63-1.27,12.25-1.56,19.69a426.13,426.13,0,0,0,.46,54.94A544.43,544.43,0,0,0,929.19-505c5.7,27.59,14,57.91,24.55,90.3s23.51,66.85,38,102.86,30.41,73.64,46.42,112.58c16.23,39.46,31.93,79.8,46.14,121.17s26.84,83.43,36.59,125.74,16.7,84.7,19.86,126.12c1.57,20.7,2.22,41.13,1.91,61.11,0,5-.2,9.94-.42,14.88l-.29,7.74-.52,7-.25,3.48-.37,3.81-.72,7.57c-.59,4.89-1.13,9.69-1.86,14.45a455.83,455.83,0,0,1-27.8,103.24c-24.37,61.19-56.57,105.43-81.37,133.36a376.47,376.47,0,0,1-30.44,30.84c-3.64,3.39-6.8,6.25-8.74,7.93a23.65,23.65,0,0,1-3,2.27s1.08-1.17,2.73-3.13,4.14-4.83,7.2-8.72a377.43,377.43,0,0,0,24.72-34.74,411.84,411.84,0,0,0,30.57-58,439.31,439.31,0,0,0,25.8-79.78,415.44,415.44,0,0,0,10-96.74c0-4.24-.28-8.55-.42-12.81l-.44-6.24-.2-3.1-.3-3.49-.6-7c0-.47,0,.18,0,0l0-.44-.1-.82-.18-1.68-.38-3.34c-.46-4.46-1-8.93-1.65-13.42-2.42-18-5.75-36.19-10-54.56-16.75-73.57-47.94-148.71-85.81-221.21C968.89-74,948.34-109.94,927.5-144.84c-21.15-35.37-42.71-70.44-63.21-105.42s-40-69.84-57.38-104.33-32.56-68.68-44.83-101.71a731.23,731.23,0,0,1-28.32-93.85,620.3,620.3,0,0,1-12.67-77.26c-1.23-11-1.65-20.79-2.23-29.46-.22-9.17-.41-17-.55-23.31-.1-9.9-.15-15.17-.15-15.17Z" fill="#96268f"/><path d="M1962.86-63.4l-13.1,5.31-11.31,4.65c-4.77,2.29-10.48,4.7-16.63,7.94a401.71,401.71,0,0,0-44.08,26,507.53,507.53,0,0,0-54.83,43,793.42,793.42,0,0,0-61.46,61.74c-21.19,23.59-43,49.94-65.32,78.32s-45.28,58.62-69.25,89.6c-24.29,31.34-49.54,62.71-76.3,93.36a1180.51,1180.51,0,0,1-84.43,87.88c-29.56,27.52-60.57,52.85-92.5,74.67-16,10.92-32.14,21-48.38,30-4,2.3-8.12,4.48-12.21,6.61l-6.37,3.38-5.87,2.84-2.93,1.41-3.25,1.51-6.44,2.95c-4.21,1.79-8.33,3.61-12.51,5.25A428.3,428.3,0,0,1,1179.53,589c-60.63,9.07-111.24,4-145.26-2.8a352,352,0,0,1-39-9.94c-4.42-1.33-7.75-2.55-10-3.31a11.21,11.21,0,0,0-2.34-.73s.13-.25,2.48.17,5.82,1.07,10.38,1.68a348.76,348.76,0,0,0,39.48,3.56,388.69,388.69,0,0,0,61-2.62,416,416,0,0,0,76.31-16.6,389.83,389.83,0,0,0,82.61-37.16c3.41-2,6.78-4.22,10.15-6.32l4.82-3.24,2.42-1.62,2.66-1.86,5.35-3.74c.38-.23-.14.07,0,0l.32-.22.63-.47,1.25-.93,2.52-1.85c3.37-2.45,6.74-5,10.06-7.57q20.06-15.47,39.37-33.41c51.54-47.73,97.68-107.68,138.58-171.74,20.49-32,39.93-65.15,58.4-98.09,18.71-33.4,37-67,55.69-99.66S1625.13,25.94,1644.89-4a950.3,950.3,0,0,1,61.22-83.25,680.6,680.6,0,0,1,62.56-66.41,581.07,581.07,0,0,1,56.42-46.14c8.26-6.09,16-11,22.71-15.52l18.55-11.31,12.16-7.2Z" fill="#8ec73f"/><path d="M2051.66,104.41l-13.8,3.09c-3.23.75-7.23,1.68-11.93,2.75-5.06,1.49-11.09,2.93-17.69,5.14a399.08,399.08,0,0,0-47.72,18.47,507.71,507.71,0,0,0-61.11,33.48,794,794,0,0,0-70.69,50.9c-24.76,19.81-50.56,42.27-77.22,66.63s-54.24,50.46-82.93,77.1c-29.08,27-59.11,53.8-90.51,79.69a1178.83,1178.83,0,0,1-97.61,72.92c-33.65,22.36-68.37,42.28-103.44,58.61-17.52,8.16-35.12,15.45-52.63,21.73-4.36,1.63-8.75,3.11-13.12,4.54l-6.84,2.3-6.26,1.84-3.12.91-3.43,1-6.84,1.87c-4.46,1.07-8.82,2.2-13.21,3.14a428.59,428.59,0,0,1-99.09,9.9c-61.3-.94-110.42-14.19-142.88-26.43a351.19,351.19,0,0,1-36.85-16.17c-4.14-2-7.23-3.78-9.33-4.91s.55,0,.55,0l-.32-.49c2.25.77,5.55,2,10,3.35a348.67,348.67,0,0,0,38.39,9.95,387,387,0,0,0,60.54,7.35,413.68,413.68,0,0,0,78-4,388.37,388.37,0,0,0,87.56-23.19c3.71-1.43,7.38-3,11.06-4.58l5.27-2.41,2.65-1.19,3-1.41,5.88-2.82c.42-.17-.17,0,0,0l.35-.18.7-.35,1.39-.71,2.78-1.42c3.75-1.87,7.47-3.79,11.18-5.83q22.31-12,44.28-26.55c58.63-38.68,113.92-90.32,164.72-146.85,25.43-28.21,50-57.77,73.6-87.25,23.92-29.9,47.43-60,71.2-89.26s47.76-57.51,72.15-83.85a954.63,954.63,0,0,1,74-72.17,684.84,684.84,0,0,1,72.53-55.3A581.67,581.67,0,0,1,1938-52.65c9.14-4.65,17.59-8.25,24.94-11.61L1983-72.39l13.18-5.12Z" fill="#cedc2e"/><path d="M2118,272.57s-4.92.33-14.17,1l-12.26.91c-5.25.7-11.47,1.23-18.36,2.41A402.83,402.83,0,0,0,2023,288a510.32,510.32,0,0,0-65.79,23.9,802.48,802.48,0,0,0-78,39.66c-27.6,15.87-56.64,34.16-86.81,54.23s-61.53,41.71-94.09,63.73c-33,22.3-66.87,44.29-102,65.14s-71.2,40.39-108,57.39-74.34,31.49-111.64,42.34c-18.64,5.44-37.23,10-55.58,13.57-4.57,1-9.15,1.74-13.71,2.51l-7.15,1.23-6.5.88-3.23.44-3.55.43-7.09.81c-4.59.39-9.1.83-13.59,1.11a431.47,431.47,0,0,1-99.94-5.14c-60.72-10.17-107.51-30.68-137.89-47.65A358.72,358.72,0,0,1,994.25,581c-3.8-2.65-6.61-4.83-8.52-6.27l-2.88-2.17,3.19,1.7c2.12,1.09,5.22,2.81,9.38,4.81A353.32,353.32,0,0,0,1032,594.68a392.78,392.78,0,0,0,59,16.39,419.11,419.11,0,0,0,78.08,7.85,392.81,392.81,0,0,0,90.5-9.73c3.9-.85,7.79-1.91,11.66-2.87l5.61-1.58,2.82-.79,3.14-1,6.26-1.89c.44-.11-.16,0,0,0l.39-.12.74-.25,1.49-.49,3-1c4-1.28,8-2.62,12-4.07q24-8.52,48-19.57c64.1-29.41,126.86-72.12,185.91-120.37,29.54-24.06,58.45-49.56,86.37-75.16,28.28-26,56.22-52.22,84.26-77.51s56.19-49.65,84.42-72a957.51,957.51,0,0,1,84.42-60.18,685.66,685.66,0,0,1,80.44-43.75,587.62,587.62,0,0,1,68.29-26.41c9.79-3.23,18.73-5.5,26.54-7.71,8.36-2,15.48-3.67,21.25-5l13.86-3.08Z" fill="#fcee1f"/><path d="M1884.24-212.6l-12.5,7.27c-2.92,1.73-6.54,3.85-10.79,6.35-4.48,3-9.92,6.27-15.68,10.45a409.34,409.34,0,0,0-40.89,32.7,521,521,0,0,0-49.31,51.47,810.69,810.69,0,0,0-53.3,71.4C1683.7-6,1665.43,23.83,1646.92,55.79s-37.38,65.92-57.18,100.74c-20.08,35.27-41.1,70.66-63.79,105.58s-46.8,69-72.79,101.18-53.7,62.28-82.88,89c-14.59,13.36-29.51,25.89-44.67,37.42-3.75,2.91-7.57,5.71-11.39,8.46l-6,4.34-5.54,3.71-2.75,1.87-3.07,2-6.09,3.91c-4,2.44-7.92,4.87-11.92,7.14a438.75,438.75,0,0,1-93.62,40.15c-60.09,17.94-112.09,20.11-147.53,18.17A365.85,365.85,0,0,1,996.8,575c-4.68-.72-8.23-1.47-10.62-1.92l-3.63-.71,3.7.13c2.43.06,6,.24,10.74.2a355.92,355.92,0,0,0,40.5-2.1,396.5,396.5,0,0,0,61.34-11.45,424,424,0,0,0,74.88-27.85,398.76,398.76,0,0,0,78.3-49.56c3.16-2.53,6.24-5.25,9.37-7.87l4.41-4,2.21-2,2.42-2.28,4.89-4.55c.34-.31-.15.09,0-.05l.3-.28.57-.57,1.14-1.11,2.28-2.25c3.07-3,6.11-6,9.09-9.12,12-12.37,23.76-25.59,35-39.53C1369,352.39,1407.09,285,1439.25,214.22c16.13-35.35,31-71.75,45-107.77,14.11-36.52,27.79-73.16,42-109s28.9-70.8,44.59-104a975.5,975.5,0,0,1,50-93.15A699.64,699.64,0,0,1,1674.55-276,593.51,593.51,0,0,1,1725-330.84c7.49-7.35,14.62-13.46,20.77-19q10.11-8.36,17.14-14.14l11.28-9Z" fill="#6ca442"/><path d="M1794.76-394l-11.86,9.62L1772.68-376c-4.19,3.87-9.32,8.15-14.65,13.45a427.35,427.35,0,0,0-37.28,40.79,548.61,548.61,0,0,0-43,61.79,856.38,856.38,0,0,0-43.83,83.28c-14.41,31.11-28.54,65.28-42.58,101.69s-28.12,75-43,114.62c-15.11,40.15-31.22,80.59-49.12,120.76S1461.72,240.17,1439.9,278s-45.77,73.8-71.82,106.44c-13,16.33-26.54,31.82-40.46,46.32-3.44,3.65-7,7.19-10.5,10.69l-5.51,5.49-5.18,4.79-2.57,2.39-2.88,2.57-5.72,5.07c-3.78,3.19-7.45,6.36-11.25,9.38a460.23,460.23,0,0,1-91.14,57c-59.8,28.41-113.76,39-151.09,42.66a382.67,382.67,0,0,1-43.48,1.92c-5,0-8.84-.22-11.4-.3l-3.91-.16,3.88-.47c2.55-.33,6.35-.71,11.25-1.51a374.57,374.57,0,0,0,42-8.69,416.46,416.46,0,0,0,62.17-21.84,442.52,442.52,0,0,0,73.59-41.13,417.15,417.15,0,0,0,73.58-64.45c2.9-3.16,5.67-6.48,8.49-9.72l3.94-4.89,2-2.43,2.16-2.77,4.34-5.55c.31-.36-.12.12,0,0l.26-.35.49-.68,1-1.36,2-2.71c2.72-3.61,5.39-7.26,8-11,10.53-14.88,20.56-30.59,30-47,38.09-65.63,66.66-142.26,88.53-221.53,11-39.58,20.51-80.08,29.13-120,8.69-40.49,16.9-81,25.8-120.8s18.47-78.76,29.34-116,23.14-72.82,36.76-105.52a735.81,735.81,0,0,1,43.51-88.47,624.75,624.75,0,0,1,43.62-65.56c6.6-8.89,13-16.43,18.54-23.22L1642.94-533l10.28-11.26Z" fill="#2dabe2"/><path d="M2134.52,765.83s-4.61-1.72-13.26-4.91c-3.1-1.14-6.94-2.53-11.47-4.18-5-1.52-10.88-3.58-17.6-5.33a398.53,398.53,0,0,0-50-10.48,510.12,510.12,0,0,0-69.39-5.22,793.92,793.92,0,0,0-86.87,4.19c-31.52,3.13-65.34,7.9-100.91,13.81s-72.87,12.77-111.38,19.49c-39,6.78-78.75,12.91-119.12,17.53s-81.08,7.59-121.41,8-80.26-1.78-118.5-7.18c-19.12-2.7-37.8-6.16-55.9-10.42-4.52-1-9-2.15-13.46-3.34l-7-1.8-6.24-1.86-3.12-.93-3.4-1.07-6.75-2.16c-4.31-1.52-8.57-3-12.75-4.55a426.7,426.7,0,0,1-88.38-45.62c-50.82-34.14-84.74-72-105.28-99.88a358.36,358.36,0,0,1-22.07-33.59c-2.36-4-4-7.11-5.15-9.2l-1.73-3.18,2.21,2.87c1.47,1.87,3.57,4.7,6.52,8.23a352.56,352.56,0,0,0,26.73,29.21,388,388,0,0,0,46.71,39.11,415,415,0,0,0,67.46,39.13,388.69,388.69,0,0,0,86,28.22c3.87.81,7.83,1.45,11.73,2.17l5.75.85,2.87.44,3.21.41,6.48.84c.43.09-.17,0,0,0l.41,0,.76.08,1.56.16,3.1.35c4.15.45,8.31.87,12.53,1.18,16.8,1.38,34,2,51.54,1.85,70.12-.5,144.5-13.69,217.78-33.42,36.64-9.81,73.3-21.19,109.1-33.06,36.28-12,72.35-24.49,108.14-36s71.3-22.2,106-31a951.19,951.19,0,0,1,101.17-20.21,681.62,681.62,0,0,1,90.83-6.88,583,583,0,0,1,72.68,3.94c10.19,1.08,19.22,2.66,27.19,3.84l21.3,4.15,13.82,2.88Z" fill="#f26322"/><path d="M2101.92,953.46s-4.32-2.48-12.42-7.08c-2.91-1.66-6.52-3.67-10.76-6.08-4.78-2.34-10.27-5.36-16.7-8.2a399.43,399.43,0,0,0-48.21-18.71,511,511,0,0,0-68.45-16.56,802.55,802.55,0,0,0-87.47-10.06c-32-2-66.58-2.79-103.09-2.7s-74.92.85-114.51,1.26c-40.11.41-80.82,0-121.91-2s-82.25-5.66-122.6-11.89-79.87-14.94-117.16-26.62c-18.65-5.81-36.75-12.35-54.11-19.57-4.36-1.77-8.64-3.64-12.88-5.55l-6.68-3-5.91-2.89-3-1.43-3.19-1.63-6.39-3.27c-4.06-2.23-8.07-4.36-12-6.64a431.09,431.09,0,0,1-80.68-60.14c-45.07-42.51-72.66-85.95-88.52-117.26a357.62,357.62,0,0,1-16.44-37.25c-1.71-4.36-2.81-7.78-3.61-10s-1.2-3.45-1.2-3.45a14.87,14.87,0,0,1,2.24,3.25c1.15,2.11,2.19,4,4.55,8a336.86,336.86,0,0,0,21.23,32.14,429.28,429.28,0,0,0,42,48.47c16.77,16.74,35.88,35.22,59.69,51.33a392.48,392.48,0,0,0,81.15,42.34c3.74,1.44,7.59,2.74,11.37,4.08l5.58,1.81,2.8.91,3.14.93,6.32,1.92c.43.15-.15-.08,0,0l.38.11.78.21,1.51.42,3.05.84c4.06,1.14,8.16,2.23,12.31,3.24,16.55,4.14,33.65,7.56,51.16,10.3,70.13,11,146.64,10,223.12,2.22,38.25-3.82,76.75-9.21,114.49-15.23,38.24-6.11,76.37-12.67,114-18.36s74.91-10.56,111.07-13.66a958.36,958.36,0,0,1,104.45-3.66,686.8,686.8,0,0,1,91.87,8,588.5,588.5,0,0,1,71.94,15.85c10,2.74,18.75,5.8,26.53,8.3l20.59,7.64,13.31,5.14Z" fill="#ed1c24"/><path d="M2022.44,1117l-11.11-8.79c-2.6-2.06-5.84-4.61-9.65-7.56-4.33-3-9.26-6.83-15.14-10.59a399.87,399.87,0,0,0-44.44-25.6,511.34,511.34,0,0,0-64.55-26.63,802,802,0,0,0-84.12-23.17c-31-6.85-64.74-12.88-100.48-18.37s-73.4-10.62-112.21-16.26c-39.3-5.74-79.07-12.32-119-20.56s-79.64-18.08-118.22-30.33-76-26.76-110.75-43.85c-17.4-8.51-34.16-17.68-50.09-27.38-4-2.37-7.92-4.87-11.79-7.36l-6.1-3.9-5.38-3.72-2.68-1.86-2.9-2.07-5.76-4.17c-3.65-2.79-7.27-5.49-10.77-8.31a431.66,431.66,0,0,1-70.17-71c-37.91-48.37-58.57-95-69.53-128a357.9,357.9,0,0,1-10.67-38.86c-1-4.52-1.62-8-2.06-10.36s-.67-3.55-.67-3.55.42,1.16,1.21,3.4.53-1.4,2.25,2.87c3.32,8.6,11.18,28.37,19.1,43.48S1024,657.08,1038,676a417.08,417.08,0,0,0,52.25,58.31,390.67,390.67,0,0,0,73.24,53.7c3.42,2,7,3.83,10.51,5.73l5.2,2.62,2.61,1.3,2.94,1.42,5.9,2.81c.39.21-.12-.11,0,0l.35.17.72.32,1.43.64,2.88,1.29c3.79,1.72,7.63,3.42,11.56,5q23.4,9.86,48.56,17.86c67,21.43,142,32.14,218,36.25,38,2.11,76.43,2.75,114.23,2.63,38.31-.14,76.56-.71,114.25-.51s74.83,1.15,110.67,3.62A953.53,953.53,0,0,1,1916,881.55a685.86,685.86,0,0,1,88.73,21.82,588,588,0,0,1,68.08,26.47c9.37,4.18,17.5,8.53,24.74,12.14,7.49,4.19,13.86,7.71,19,10.61,8,4.6,12.28,7,12.28,7Z" fill="#c92027"/><path d="M2023.93,1261.77s-3.74-3.57-10.82-10.29c-2.54-2.4-5.69-5.39-9.4-8.88-4.25-3.58-9.07-8-14.87-12.55a423,423,0,0,0-44.16-31.19,540,540,0,0,0-65.1-34.24,845.94,845.94,0,0,0-85.89-32.59c-31.84-10.23-66.56-19.9-103.46-29.18s-75.8-18.38-115.9-28.13c-40.6-9.9-81.61-20.75-122.62-33.31S1370,1014.61,1330.79,998s-77-35.51-111.86-56.84c-17.42-10.62-34.12-21.87-49.91-33.59-4-2.89-7.83-5.88-11.66-8.87l-6-4.69-5.3-4.43-2.63-2.21-2.84-2.45-5.65-4.93c-3.56-3.28-7.1-6.46-10.51-9.75A458.77,458.77,0,0,1,1057.51,789c-35.24-54.33-52.58-105.1-61-140.67a372.68,372.68,0,0,1-7.59-41.68c-.68-4.83-1-8.55-1.22-11s-.37-3.78-.37-3.78.33,1.26,1,3.68,1.55,6,3,10.67a365,365,0,0,0,13.9,39.45A414.12,414.12,0,0,0,1034.33,703a442.93,442.93,0,0,0,49.32,66.15,414.78,414.78,0,0,0,71.71,63.42c3.39,2.42,7,4.7,10.47,7l5.21,3.26,2.6,1.62,3,1.77,5.9,3.53c.4.26-.12-.12,0,0l.36.21.72.4,1.44.83,2.88,1.61c3.81,2.19,7.68,4.35,11.64,6.43q23.58,12.63,49.17,23.49c68.16,29,145.63,47.7,224.75,59.54,39.54,6,79.72,10.46,119.27,14.09,40.11,3.66,80.17,6.85,119.6,10.81s78.18,8.63,115.45,14.78a1003.31,1003.31,0,0,1,106.33,23.15A725.74,725.74,0,0,1,2025,1036.7a624.5,624.5,0,0,1,68.81,34.42c9.44,5.32,17.53,10.66,24.77,15.16,7.45,5.11,13.81,9.44,18.93,13l12.22,8.59Z" fill="#eb0d8a"/><path d="M1941.1,1442.21s-3.26-4.33-9.43-12.48c-2.21-2.93-5-6.54-8.21-10.76-3.8-4.46-8-9.87-13.23-15.53a449.41,449.41,0,0,0-40.29-39.78,571.13,571.13,0,0,0-61.31-46.58c-24.09-16.09-52-32.36-83-48.48s-65.19-32.06-101.59-48-74.93-32.12-114.56-49.13c-40.11-17.24-80.49-35.53-120.59-55.61s-79.56-41.8-117.19-65.76-73.36-50-105.68-78c-16.18-14-31.5-28.45-45.79-43.28-3.61-3.64-7.1-7.4-10.53-11.15l-5.43-5.87-4.72-5.48-2.34-2.72-2.52-3-5-6.05c-3.12-4-6.23-7.89-9.19-11.87a484.53,484.53,0,0,1-55.47-95.27c-27.31-62.06-40.06-121-42.92-159.07-1.45-19.12,1.91-30.47,2.27-40.61.1-5.09.41-9,.57-11.58s.23-4,.23-4,.14,1.35.39,3.94.77,6.34,1.46,11.36a416.43,416.43,0,0,0,8.32,43.22c4.34,18.26,10.16,40.12,20,64.13a468.16,468.16,0,0,0,39.85,76.68,438.15,438.15,0,0,0,63.34,77.76c3.09,3.08,6.4,6,9.6,9.06l4.82,4.25,2.41,2.13,2.75,2.34,5.5,4.66c.37.33-.11-.15,0,0l.34.28.68.53,1.34,1.11,2.7,2.17c3.55,2.91,7.18,5.8,10.92,8.63q22.17,17.1,46.69,32.74c65.31,41.76,141.91,74.43,221.31,100.37,39.66,13,80.23,24.62,120.31,35.25,40.62,10.75,81.29,21,121.16,31.93s79,22.47,116.29,35.29a1054.48,1054.48,0,0,1,105.54,42.32,764.57,764.57,0,0,1,88.19,48.35,655.59,655.59,0,0,1,65.1,47.41c8.82,7.11,16.27,14,23,19.91,6.82,6.56,12.64,12.13,17.32,16.65,7.27,7.16,11.16,11,11.16,11Z" fill="#c4178d"/><path d="M2176.84,602.3l-14.12-3.06c-3.32-.71-7.43-1.56-12.23-2.59-5.34-.79-11.54-2-18.61-2.85a410.67,410.67,0,0,0-52.16-3.39,521,521,0,0,0-71,4.76A811.28,811.28,0,0,0,1921.33,612c-31.46,7.71-65,17.45-100.18,28.57s-72,23.46-110,35.82c-38.56,12.51-77.9,24.48-118.13,35s-81,19.41-121.79,25.64-81.53,9.78-121,9.85c-19.75,0-39.19-.77-58.12-2.48-4.73-.37-9.43-.87-14.1-1.42l-7.32-.83-6.59-1-3.29-.48-3.6-.6-7.13-1.21c-4.59-.91-9.11-1.75-13.59-2.77a438,438,0,0,1-96.08-33.41c-56.39-27.22-96.22-60.64-121-85.94a360.41,360.41,0,0,1-27.19-30.83c-3-3.68-5.08-6.62-6.55-8.57s-2.19-3-2.19-3a34.78,34.78,0,0,1,3.24,2.78c1.76,1.68,3.46,3.35,7,6.48a350.92,350.92,0,0,0,31.53,26.42,394.94,394.94,0,0,0,52.95,32.84,422.74,422.74,0,0,0,74,29.89,397.42,397.42,0,0,0,91.11,16.14c4,.27,8.14.34,12.2.5l5.94.05,3,0,3.32,0,6.67-.08c.46,0-.17,0,0,0l.41,0,.79,0,1.6,0,3.19-.13c4.27-.13,8.55-.31,12.86-.61,17.21-1,34.73-2.88,52.45-5.57,70.94-10.64,144.36-34.74,215.72-65.33,35.69-15.21,71.18-32,105.71-49.23,35-17.45,69.74-35.28,104.32-52.13s69-32.78,102.89-46.72a971.88,971.88,0,0,1,99.55-35.09,696.47,696.47,0,0,1,91-20.11,594.63,594.63,0,0,1,74.18-6.51c10.47-.39,19.83-.1,28.1,0l22.16,1.11,14.4.93Z" fill="#f7921f"/><path d="M2233.09,405.75l-15.23-.88-13.17-.7c-5.67,0-12.36-.25-19.84.08a426.49,426.49,0,0,0-55,5,547.24,547.24,0,0,0-73.33,16.8c-27.15,8-56.84,18.87-88.4,32.19s-65,29.2-99.87,46.74-71.25,36.68-108.92,56c-38.18,19.58-77.29,38.72-117.55,56.45s-81.33,33.9-122.89,47.22-83.43,23.83-124.65,30.46c-20.58,3.31-41,5.67-61,7-5,.38-10,.63-14.94.82l-7.76.35-7,0-3.52,0-3.84-.05-7.63-.07c-5-.21-9.79-.33-14.62-.68a456.83,456.83,0,0,1-105.63-19.34c-63.22-19.39-110.14-48.06-140.12-70.66-15.06-11.3-26.49-20.88-33.78-27.78-4.52-4.15-6.86-7-8.22-8.36a24.79,24.79,0,0,1-2.51-2.78,42.72,42.72,0,0,1,3.63,2.33c2.1,1.5,4.81,3.45,9,6.18a362.74,362.74,0,0,0,36.88,22.42,414.59,414.59,0,0,0,60.53,25.9,438.75,438.75,0,0,0,82,19.27,414.83,414.83,0,0,0,97.64,2c4.26-.4,8.53-1,12.81-1.49l6.21-1,3.08-.47,3.47-.59,6.94-1.18c.46-.07-.19,0,0-.05l.44-.07.81-.17,1.66-.33,3.31-.64c4.44-.85,8.86-1.74,13.31-2.78q26.68-5.88,53.82-14.58c72.27-23,145-60.57,214.45-104.65,34.76-22,69.05-45.61,102.29-69.45,33.69-24.22,67-48.78,100.38-72.3s66.66-46,99.78-66.34,66.1-38.44,98.17-53.51A728.27,728.27,0,0,1,2085.87,226a622.15,622.15,0,0,1,76.31-19.17c10.85-2.14,20.67-3.38,29.3-4.7,9.17-1,17-1.82,23.3-2.48l15.17-1.42Z" fill="#fdc212"/><rect id="SVGID" x="127.24" y="-286" width="1709.3" height="1709.3" fill="none"/></g></svg>